<?xml version="1.0" encoding="UTF-8"?>
<svg width="104px" height="22px" viewBox="0 0 104 22" version="1.1" xmlns="http://www.w3.org/2000/svg" xmlns:xlink="http://www.w3.org/1999/xlink" xmlns:sketch="http://www.bohemiancoding.com/sketch/ns">
    <!-- Generator: Sketch 3.3.2 (12043) - http://www.bohemiancoding.com/sketch -->
    <title>BarFlow</title>
    <desc>Created with Sketch.</desc>
    <defs></defs>
    <g id="Page-1" stroke="none" stroke-width="1" fill="none" fill-rule="evenodd" sketch:type="MSPage">
        <g id="Products" sketch:type="MSArtboardGroup" transform="translate(-27.000000, -15.000000)" fill="#4A4A4A">
            <g id="header" sketch:type="MSLayerGroup">
                <path d="M41.296875,30.6132812 C41.296875,32.7096459 40.6110095,34.1315067 39.2392578,34.8789062 C37.8675062,35.6263058 36.0787871,36 33.8730469,36 L27.0507812,36 L27.0507812,17.3242188 L34.6660156,17.3242188 C37.4642067,17.3242188 39.1891243,17.8710883 39.8408203,18.9648438 C40.4925163,20.0585992 40.8183594,21.1249948 40.8183594,22.1640625 C40.8183594,23.2031302 40.4925163,24.0895146 39.8408203,24.8232422 C39.1891243,25.5569698 38.2936255,26.051431 37.1542969,26.3066406 C38.330084,26.5162771 39.3144492,26.9902307 40.1074219,27.7285156 C40.9003946,28.4668006 41.296875,29.4283795 41.296875,30.6132812 L41.296875,30.6132812 Z M36.703125,22.4921875 C36.703125,21.5533807 36.3818392,20.8811869 35.7392578,20.4755859 C35.0966765,20.069985 34.2968798,19.8671875 33.3398438,19.8671875 L31.015625,19.8671875 L31.015625,25.2265625 L33.0117188,25.2265625 C34.6979251,25.2265625 35.7346986,24.8984408 36.1220703,24.2421875 C36.509442,23.5859342 36.703125,23.0026067 36.703125,22.4921875 L36.703125,22.4921875 Z M37.0996094,30.53125 C37.0996094,28.5807194 35.6686341,27.6054688 32.8066406,27.6054688 L31.015625,27.6054688 L31.015625,33.4570312 L32.984375,33.4570312 C34.8073008,33.4570312 35.9488909,33.119795 36.4091797,32.4453125 C36.8694684,31.77083 37.0996094,31.1328155 37.0996094,30.53125 L37.0996094,30.53125 Z M56.2539062,32.6914062 C56.2539062,34.0950591 56.2994787,35.1979127 56.390625,36 L52.6308594,36 L52.5488281,33.8125 C52.0657528,34.5781288 51.4231811,35.1865212 50.6210938,35.6376953 C49.8190064,36.0888694 49.0306028,36.3144531 48.2558594,36.3144531 C46.7519456,36.3144531 45.5511113,35.9681024 44.6533203,35.2753906 C43.7555294,34.5826788 43.3066406,33.5755274 43.3066406,32.2539062 C43.3066406,30.5038975 44.0130138,29.2347045 45.4257812,28.4462891 C46.8385487,27.6578737 48.6432182,27.2636719 50.8398438,27.2636719 C51.4322946,27.2636719 51.9928359,27.2819009 52.5214844,27.3183594 L52.5214844,26.8398438 C52.5214844,24.9804595 51.4323026,24.0507812 49.2539062,24.0507812 C47.6497316,24.0507812 46.2278708,24.4199182 44.9882812,25.1582031 L44.8242188,22.5605469 C46.4830812,21.9589814 48.1236898,21.6582031 49.7460938,21.6582031 C54.0846571,21.6582031 56.2539062,23.4811016 56.2539062,27.1269531 L56.2539062,32.6914062 Z M52.5214844,29.3144531 L52.015625,29.3144531 C50.6028575,29.3144531 49.5820344,29.4306629 48.953125,29.6630859 C48.3242156,29.895509 47.8434261,30.1848941 47.5107422,30.53125 C47.1780582,30.8776059 47.0117188,31.287758 47.0117188,31.7617188 C47.0117188,32.5546915 47.2350238,33.1083969 47.6816406,33.4228516 C48.1282574,33.7373063 48.656898,33.8945312 49.2675781,33.8945312 C50.3977921,33.8945312 51.2226537,33.5345088 51.7421875,32.8144531 C52.2617213,32.0943974 52.5214844,31.160162 52.5214844,30.0117188 L52.5214844,29.3144531 Z M67.1367188,21.6308594 C67.6015648,21.6308594 67.9843735,21.6809891 68.2851562,21.78125 L68.1757812,25.2539062 C67.8111961,25.1263014 67.3554715,25.0625 66.8085938,25.0625 C66.261716,25.0625 65.5735719,25.3290989 64.7441406,25.8623047 C63.9147094,26.3955105 63.5,27.6829325 63.5,29.7246094 L63.5,36 L59.6308594,36 L59.6308594,25.0761719 C59.6308594,23.8730409 59.5852869,22.838546 59.4941406,21.9726562 L63.1308594,21.9726562 L63.2128906,24.6933594 C63.768883,23.3535089 64.445634,22.5081398 65.2431641,22.1572266 C66.0406941,21.8063133 66.6718727,21.6308594 67.1367188,21.6308594 L67.1367188,21.6308594 Z M74.8339844,20.1816406 L74.8339844,25.3085938 L82.2988281,25.3085938 L82.2988281,28.1386719 L74.8339844,28.1386719 L74.8339844,36 L70.6914062,36 L70.6914062,17.3242188 L82.640625,17.3242188 L82.640625,20.1816406 L74.8339844,20.1816406 Z M85.2929688,36 L85.2929688,15.8066406 L89.1621094,15.8066406 L89.1621094,36 L85.2929688,36 Z M99.2792969,21.6582031 C101.503266,21.6582031 103.273756,22.2848245 104.59082,23.5380859 C105.907884,24.7913474 106.566406,26.5663948 106.566406,28.8632812 C106.566406,31.1601677 105.912441,32.9762303 104.604492,34.3115234 C103.296543,35.6468166 101.494152,36.3144531 99.1972656,36.3144531 C96.9003791,36.3144531 95.1002669,35.6536524 93.796875,34.3320312 C92.4934831,33.0104101 91.8417969,31.2102979 91.8417969,28.9316406 C91.8417969,26.6529834 92.5253838,24.8711002 93.8925781,23.5859375 C95.2597725,22.3007748 97.0553274,21.6582031 99.2792969,21.6582031 L99.2792969,21.6582031 Z M101.678711,25.6640625 C101.181964,24.7525996 100.363938,24.296875 99.2246094,24.296875 C98.0852808,24.296875 97.2604192,24.750321 96.75,25.6572266 C96.2395808,26.5641321 95.984375,27.6510353 95.984375,28.9179688 C95.984375,31.0416773 96.3740195,32.3655573 97.1533203,32.8896484 C97.9326211,33.4137396 98.6230439,33.6757812 99.2246094,33.6757812 C99.8261749,33.6757812 100.332029,33.5413425 100.742188,33.2724609 C101.152346,33.0035794 101.535154,32.5501334 101.890625,31.9121094 C102.246096,31.2740854 102.423828,30.2988347 102.423828,28.9863281 C102.423828,27.6829362 102.175458,26.5755254 101.678711,25.6640625 L101.678711,25.6640625 Z M127.060547,36 L122.261719,36 L119.431641,24.8574219 L116.533203,36 L111.734375,36 L107.728516,21.9453125 L111.625,21.9453125 L114.427734,33.0058594 L117.230469,21.9453125 L121.824219,21.9453125 L124.708984,33.0058594 L127.416016,21.9453125 L130.998047,21.9453125 L127.060547,36 Z" id="BarFlow" sketch:type="MSShapeGroup"></path>
            </g>
        </g>
    </g>
</svg>